<svg version="1.1" xmlns="http://www.w3.org/2000/svg" viewBox="0 0 1055.6811271008162 484.2093393811602" width="3167.0433813024483" height="1452.6280181434806" filter="invert(93%) hue-rotate(180deg)">
  <!-- svg-source:excalidraw -->
  
  <defs>
    <style class="style-fonts">
      @font-face {
        font-family: "Virgil";
        src: url("https://excalidraw.com/Virgil.woff2");
      }
      @font-face {
        font-family: "Cascadia";
        src: url("https://excalidraw.com/Cascadia.woff2");
      }
    </style>
    
  </defs>
  <rect x="0" y="0" width="1055.6811271008162" height="484.2093393811602" fill="#ffffff"></rect><g stroke-linecap="round" transform="translate(268.80173959856955 166.92318949618272) rotate(0 34.5 24.5)"><path d="M37.05 -0.45 C44.07 -0.74, 52.03 2.14, 57.48 5.73 C62.92 9.32, 68.73 15.73, 69.74 21.06 C70.75 26.39, 67.65 33.29, 63.52 37.73 C59.4 42.18, 52.02 46.07, 44.99 47.72 C37.96 49.37, 28.13 49.54, 21.35 47.63 C14.57 45.72, 7.76 40.93, 4.34 36.27 C0.91 31.6, -0.92 25.05, 0.78 19.66 C2.47 14.27, 7.46 6.95, 14.51 3.91 C21.57 0.86, 37.63 1.75, 43.1 1.4 C48.57 1.05, 47.65 1.49, 47.33 1.83 M45.03 2.21 C52.05 3.79, 61.83 8.04, 65.51 12.33 C69.18 16.62, 68.34 22.52, 67.08 27.93 C65.83 33.33, 63.31 41.33, 57.97 44.76 C52.63 48.19, 42.51 48.56, 35.03 48.5 C27.55 48.45, 18.75 47.81, 13.09 44.43 C7.43 41.04, 2.41 33.74, 1.08 28.19 C-0.24 22.63, 1.66 15.55, 5.15 11.08 C8.65 6.62, 15.41 3.19, 22.06 1.39 C28.72 -0.41, 41.15 0.41, 45.08 0.3 C49.02 0.19, 45.58 0.01, 45.68 0.73" stroke="#1e1e1e" stroke-width="1" fill="none"></path></g><g transform="translate(296.5232224414569 179.09907335711233) rotate(0 6.883333206176758 12.5)"><text x="6.883333206176758" y="0" font-family="Virgil, Segoe UI Emoji" font-size="20px" fill="#1e1e1e" text-anchor="middle" style="white-space: pre;" direction="ltr" dominant-baseline="text-before-edge">0</text></g><g stroke-linecap="round" transform="translate(429.83775034075705 163.82846293368272) rotate(0 31 31)"><path d="M23.45 0.15 C29.68 -1.55, 39.19 0.18, 45.25 3.2 C51.31 6.22, 57.26 12.19, 59.81 18.26 C62.36 24.32, 62.56 33.09, 60.55 39.59 C58.54 46.09, 53.15 53.62, 47.76 57.26 C42.37 60.9, 34.9 62.35, 28.21 61.44 C21.52 60.53, 12.4 56.67, 7.62 51.8 C2.84 46.94, -0.27 38.81, -0.49 32.27 C-0.7 25.74, 0.98 18.15, 6.32 12.61 C11.66 7.06, 26.38 0.89, 31.55 -0.99 C36.73 -2.88, 37.51 0.66, 37.4 1.3 M30.38 -0.31 C36.41 -0.6, 44.12 2.55, 49.56 7.01 C54.99 11.46, 61.55 19.68, 62.98 26.41 C64.4 33.13, 61.65 41.81, 58.09 47.34 C54.52 52.87, 47.91 57.51, 41.6 59.59 C35.29 61.67, 26.21 61.82, 20.21 59.8 C14.21 57.79, 8.92 52.96, 5.62 47.47 C2.31 41.99, -0.67 33.79, 0.37 26.92 C1.41 20.05, 6.93 10.61, 11.88 6.27 C16.83 1.94, 27 1.82, 30.07 0.9 C33.15 -0.02, 30.1 0.54, 30.34 0.76" stroke="#1e1e1e" stroke-width="1" fill="none"></path></g><g transform="translate(458.2007734255183 182.40815271689974) rotate(0 2.7166666984558105 12.5)"><text x="2.7166666984558105" y="0" font-family="Virgil, Segoe UI Emoji" font-size="20px" fill="#1e1e1e" text-anchor="middle" style="white-space: pre;" direction="ltr" dominant-baseline="text-before-edge">1</text></g><g transform="translate(317.83775034075705 247.82846293368272) rotate(0 47.56666564941406 10.5)"><text x="0" y="0" font-family="Virgil, Segoe UI Emoji" font-size="16.799999999999997px" fill="#1e1e1e" text-anchor="start" style="white-space: pre;" direction="ltr" dominant-baseline="text-before-edge">a-z, concat</text></g><g transform="translate(395.83775034075705 298.8284629336827) rotate(0 56.61666488647461 12.5)"><text x="0" y="0" font-family="Virgil, Segoe UI Emoji" font-size="20px" fill="#1e1e1e" text-anchor="start" style="white-space: pre;" direction="ltr" dominant-baseline="text-before-edge">a-z, concat</text></g><g stroke-linecap="round"><g transform="translate(470.83775034075705 225.82846293368272) rotate(0 -14.72397795550063 30.162662867174618)"><path d="M-0.22 -0.53 C1.74 6, 11.98 30.02, 10.91 40.24 C9.83 50.46, 1.62 59.77, -6.68 60.78 C-14.97 61.79, -33.36 52.43, -38.87 46.31 C-44.37 40.19, -41.78 30.85, -39.68 24.06 C-37.59 17.27, -28.51 8.63, -26.31 5.55 M-1.79 1.8 C0.6 8.98, 13.96 31.87, 13.04 41.38 C12.13 50.89, 1.32 57.82, -7.27 58.85 C-15.87 59.88, -32.93 53.39, -38.55 47.57 C-44.17 41.76, -42.71 31.09, -40.99 23.96 C-39.26 16.83, -30.76 8.04, -28.19 4.8" stroke="#1e1e1e" stroke-width="1" fill="none"></path></g><g transform="translate(470.83775034075705 225.82846293368272) rotate(0 -14.72397795550063 30.162662867174618)"><path d="M-32.85 14.9 C-32.22 13.74, -29.74 10.98, -27.88 5.12 M-32.06 16.28 C-31.44 12.91, -30.7 11.49, -28.56 4.3" stroke="#1e1e1e" stroke-width="1" fill="none"></path></g><g transform="translate(470.83775034075705 225.82846293368272) rotate(0 -14.72397795550063 30.162662867174618)"><path d="M-39.07 9.63 C-36.97 9.7, -33.05 8.15, -27.88 5.12 M-38.29 11 C-36.26 8.78, -34.13 8.53, -28.56 4.3" stroke="#1e1e1e" stroke-width="1" fill="none"></path></g></g><mask></mask><g stroke-linecap="round" transform="translate(263.83775034075705 289.8284629336827) rotate(0 38.5 38.5)"><path d="M49.29 0.9 C56.48 2.45, 65.04 8.4, 69.81 14.5 C74.58 20.61, 77.87 29.83, 77.92 37.53 C77.98 45.23, 74.63 54.41, 70.14 60.69 C65.66 66.98, 58.13 72.69, 51 75.22 C43.87 77.76, 34.36 77.97, 27.36 75.91 C20.36 73.86, 13.49 68.97, 9.02 62.9 C4.54 56.84, 0.75 47.34, 0.52 39.5 C0.29 31.66, 3.47 22.21, 7.61 15.88 C11.76 9.55, 17.99 3.71, 25.39 1.52 C32.79 -0.66, 46.86 2.29, 52.02 2.76 C57.18 3.23, 56.4 3.81, 56.34 4.36 M19.46 5.48 C25.63 1.26, 35.61 -1.39, 43.15 -0.54 C50.68 0.32, 59.08 5.34, 64.68 10.6 C70.28 15.86, 75.3 23.63, 76.74 31 C78.18 38.37, 76.61 48.11, 73.32 54.82 C70.02 61.54, 63.37 67.74, 56.96 71.28 C50.55 74.82, 42.18 76.8, 34.84 76.05 C27.49 75.31, 18.53 71.85, 12.88 66.79 C7.23 61.73, 2.55 52.98, 0.91 45.69 C-0.73 38.4, -0.39 29.97, 3.04 23.04 C6.48 16.1, 18.41 7.14, 21.53 4.07 C24.64 1, 21.81 4.01, 21.74 4.62" stroke="#1e1e1e" stroke-width="1" fill="none"></path></g><g transform="translate(294.99747247125174 315.60485185800064) rotate(0 7.116666793823242 12.5)"><text x="7.116666793823242" y="0" font-family="Virgil, Segoe UI Emoji" font-size="20px" fill="#1e1e1e" text-anchor="middle" style="white-space: pre;" direction="ltr" dominant-baseline="text-before-edge">2</text></g><g stroke-linecap="round"><g transform="translate(295.83775034075705 217.82846293368272) rotate(0 -7.0988703508512 35.09803929960822)"><path d="M-0.51 1.06 C-3.25 6.26, -15.66 20.95, -15.62 32.37 C-15.58 43.8, -2.82 63.33, -0.29 69.62 M1.42 0.57 C-0.99 6.43, -12.79 22.41, -13.23 33.58 C-13.67 44.75, -3.34 61.84, -1.21 67.6" stroke="#1e1e1e" stroke-width="1" fill="none"></path></g><g transform="translate(295.83775034075705 217.82846293368272) rotate(0 -7.0988703508512 35.09803929960822)"><path d="M-13.26 52.8 C-10.79 58.48, -3.69 63.31, 0.64 66.75 M-15.69 53.25 C-10.12 58.67, -4.45 63.24, -1.54 67.37" stroke="#1e1e1e" stroke-width="1" fill="none"></path></g><g transform="translate(295.83775034075705 217.82846293368272) rotate(0 -7.0988703508512 35.09803929960822)"><path d="M-1.17 47.17 C-3.1 54.87, -0.45 61.78, 0.64 66.75 M-3.59 47.62 C-2.35 55.05, -1.03 61.64, -1.54 67.37" stroke="#1e1e1e" stroke-width="1" fill="none"></path></g></g><mask></mask><g transform="translate(254.83775034075705 236.82846293368272) rotate(0 4.150000095367432 12.5)"><text x="0" y="0" font-family="Virgil, Segoe UI Emoji" font-size="20px" fill="#1e1e1e" text-anchor="start" style="white-space: pre;" direction="ltr" dominant-baseline="text-before-edge">(</text></g><g transform="translate(370.83775034075705 93.82846293368273) rotate(0 27.58333396911621 12.5)"><text x="0" y="0" font-family="Virgil, Segoe UI Emoji" font-size="20px" fill="#1e1e1e" text-anchor="start" style="white-space: pre;" direction="ltr" dominant-baseline="text-before-edge">-, list</text></g><g stroke-linecap="round"><g transform="translate(330.83775034075705 214.82846293368272) rotate(0 52.32744763545227 17.13722632266453)"><path d="M-0.19 0.91 C6.03 6.41, 18.57 34.34, 36.34 34.2 C54.1 34.06, 94.69 5.78, 106.41 0.07 M-1.75 0.34 C4.43 5.96, 17.72 32.1, 35.57 32.19 C53.41 32.28, 93.47 6.18, 105.33 0.9" stroke="#1e1e1e" stroke-width="1" fill="none"></path></g><g transform="translate(330.83775034075705 214.82846293368272) rotate(0 52.32744763545227 17.13722632266453)"><path d="M86.88 23.86 C89.84 17.45, 92.31 12.96, 103.57 0.83 M84.88 22.82 C91.1 18.38, 96.28 10.88, 105.78 1.22" stroke="#1e1e1e" stroke-width="1" fill="none"></path></g><g transform="translate(330.83775034075705 214.82846293368272) rotate(0 52.32744763545227 17.13722632266453)"><path d="M77.16 5.78 C82.42 3.34, 87.01 2.79, 103.57 0.83 M75.16 4.74 C83.87 4.95, 91.55 2.1, 105.78 1.22" stroke="#1e1e1e" stroke-width="1" fill="none"></path></g></g><mask></mask><g stroke-linecap="round"><g transform="translate(445.83775034075705 157.82846293368272) rotate(0 -61.02442770612424 -13.459703824941116)"><path d="M-0.77 -0.88 C-8.68 -5.48, -28.06 -28.19, -48.36 -27.81 C-68.66 -27.43, -110.09 -3.75, -122.55 1.39 M1.03 1.27 C-7 -3.61, -28.81 -29.49, -49.5 -29.31 C-70.18 -29.12, -110.84 -2.67, -123.08 2.39" stroke="#1e1e1e" stroke-width="1" fill="none"></path></g><g transform="translate(445.83775034075705 157.82846293368272) rotate(0 -61.02442770612424 -13.459703824941116)"><path d="M-104.27 -20.33 C-105.47 -14.07, -113.09 -9.95, -121.32 3.66 M-103.25 -20.18 C-111.09 -12.49, -116.56 -3.55, -123.14 2.21" stroke="#1e1e1e" stroke-width="1" fill="none"></path></g><g transform="translate(445.83775034075705 157.82846293368272) rotate(0 -61.02442770612424 -13.459703824941116)"><path d="M-94.8 -2.12 C-98.13 -0.07, -107.9 -0.09, -121.32 3.66 M-93.78 -1.98 C-105.02 -0.93, -113.9 1.45, -123.14 2.21" stroke="#1e1e1e" stroke-width="1" fill="none"></path></g></g><mask></mask><g stroke-linecap="round" transform="translate(441.83775034075705 345.3826621524327) rotate(0 47 47)"><path d="M35.43 0.53 C43.13 -2.03, 55.3 -0.74, 63.43 2.28 C71.56 5.31, 79.29 11.87, 84.19 18.68 C89.09 25.49, 92.07 34.8, 92.82 43.16 C93.57 51.51, 92.54 61.24, 88.69 68.81 C84.84 76.37, 76.98 84.44, 69.72 88.53 C62.47 92.63, 53.61 93.78, 45.19 93.38 C36.76 92.98, 26.15 91.09, 19.17 86.13 C12.18 81.18, 6.23 71.73, 3.28 63.63 C0.33 55.54, -0.26 45.83, 1.48 37.58 C3.21 29.33, 7.05 20.37, 13.69 14.12 C20.32 7.86, 36.21 2.29, 41.29 0.04 C46.36 -2.22, 44.19 -0.21, 44.15 0.6 M66.91 3.73 C74.67 6.56, 83.9 15.94, 88.22 23.37 C92.53 30.79, 93.38 39.99, 92.8 48.26 C92.21 56.52, 89.58 65.75, 84.73 72.94 C79.87 80.13, 71.37 88.13, 63.66 91.41 C55.95 94.69, 46.46 94.17, 38.48 92.62 C30.49 91.07, 21.73 88, 15.77 82.12 C9.81 76.24, 5.14 65.63, 2.71 57.32 C0.27 49.01, -1.37 40.09, 1.16 32.24 C3.69 24.38, 10.9 15.38, 17.91 10.19 C24.93 5, 35.06 1.75, 43.25 1.08 C51.44 0.42, 63.1 5.56, 67.05 6.2 C71.01 6.84, 67.06 4.32, 66.98 4.91" stroke="#1e1e1e" stroke-width="1" fill="none"></path></g><g transform="translate(481.7870650219009 379.648643436665) rotate(0 6.816666603088379 12.5)"><text x="6.816666603088379" y="0" font-family="Virgil, Segoe UI Emoji" font-size="20px" fill="#1e1e1e" text-anchor="middle" style="white-space: pre;" direction="ltr" dominant-baseline="text-before-edge">3</text></g><g transform="translate(358.83775034075705 399.3826621524327) rotate(0 4.116666793823242 12.5)"><text x="0" y="0" font-family="Virgil, Segoe UI Emoji" font-size="20px" fill="#1e1e1e" text-anchor="start" style="white-space: pre;" direction="ltr" dominant-baseline="text-before-edge">-</text></g><g stroke-linecap="round"><g transform="translate(334.83775034075705 354.3826621524327) rotate(0 50.44779742108196 19.350280766360754)"><path d="M0.1 -0.37 C8.52 5.6, 32.53 29.54, 49.55 36.23 C66.57 42.92, 93.49 39.27, 102.2 39.75 M-1.31 -1.61 C7 4.46, 31.23 30.79, 48.37 37.36 C65.51 43.93, 92.61 37.31, 101.54 37.81" stroke="#1e1e1e" stroke-width="1" fill="none"></path></g><g transform="translate(334.83775034075705 354.3826621524327) rotate(0 50.44779742108196 19.350280766360754)"><path d="M77.21 47.78 C81.72 46.49, 89.46 43.46, 101.81 37.42 M78.67 48.13 C83.33 45.89, 90.18 43.7, 101.39 36.91" stroke="#1e1e1e" stroke-width="1" fill="none"></path></g><g transform="translate(334.83775034075705 354.3826621524327) rotate(0 50.44779742108196 19.350280766360754)"><path d="M75.86 30.04 C80.72 32.64, 88.76 33.5, 101.81 37.42 M77.32 30.39 C82.26 32.61, 89.45 34.87, 101.39 36.91" stroke="#1e1e1e" stroke-width="1" fill="none"></path></g></g><mask></mask><g stroke-linecap="round" transform="translate(568.7390908253763 212.38266215243272) rotate(0 31 31)"><path d="M27.04 0.92 C33.32 -0.18, 43.34 2.04, 49.04 5.76 C54.74 9.47, 59.68 16.88, 61.25 23.22 C62.81 29.56, 61.24 37.84, 58.42 43.79 C55.6 49.75, 50.21 56.06, 44.34 58.96 C38.47 61.86, 29.58 62.93, 23.19 61.2 C16.8 59.47, 9.91 54.02, 6.01 48.6 C2.11 43.18, -0.76 35.26, -0.22 28.67 C0.31 22.08, 4.17 13.8, 9.23 9.06 C14.28 4.32, 26.03 1.61, 30.1 0.23 C34.17 -1.15, 33.42 0.37, 33.62 0.77 M39.14 0.12 C45.35 1.87, 54.21 9.75, 58.1 15.44 C61.98 21.12, 63.67 27.69, 62.45 34.25 C61.24 40.81, 55.98 50.28, 50.82 54.81 C45.65 59.34, 37.73 61.38, 31.46 61.43 C25.19 61.48, 18.43 59.19, 13.18 55.11 C7.93 51.03, 1.57 43.1, -0.04 36.94 C-1.64 30.78, 0.39 23.68, 3.53 18.18 C6.67 12.67, 12.49 6.94, 18.81 3.9 C25.13 0.87, 37.72 0.1, 41.45 -0.04 C45.18 -0.18, 41.39 2.42, 41.2 3.06" stroke="#1e1e1e" stroke-width="1" fill="none"></path></g><g transform="translate(593.4187805132258 230.96235193564974) rotate(0 6.400000095367432 12.5)"><text x="6.400000095367432" y="0" font-family="Virgil, Segoe UI Emoji" font-size="20px" fill="#1e1e1e" text-anchor="middle" style="white-space: pre;" direction="ltr" dominant-baseline="text-before-edge">4</text></g><g transform="translate(663.7356068989213 311.3757156679694) rotate(306.7289839612867 47.56666564941406 10.5)"><text x="0" y="0" font-family="Virgil, Segoe UI Emoji" font-size="16.799999999999997px" fill="#1e1e1e" text-anchor="start" style="white-space: pre;" direction="ltr" dominant-baseline="text-before-edge">a-z, concat</text></g><g transform="translate(540.7390908253763 352.3826621524327) rotate(317.203830528321 56.61666488647461 12.5)"><text x="0" y="0" font-family="Virgil, Segoe UI Emoji" font-size="20px" fill="#1e1e1e" text-anchor="start" style="white-space: pre;" direction="ltr" dominant-baseline="text-before-edge">a-z, concat</text></g><g stroke-linecap="round"><g transform="translate(616.5667615652258 275.69962659866025) rotate(0 32.00634107709527 23.289196029237587)"><path d="M0.54 0.54 C9.74 0.33, 42.61 -4.2, 56.08 -0.39 C69.56 3.41, 80.35 15.44, 81.38 23.39 C82.42 31.34, 71.8 45.42, 62.29 47.32 C52.78 49.22, 37.61 41.5, 24.32 34.8 C11.03 28.1, -10.57 11.58, -17.44 7.14 M-0.63 -0.23 C8.41 -0.4, 42.06 -3.55, 55.62 0.58 C69.18 4.71, 79.56 16.61, 80.73 24.55 C81.89 32.5, 72.23 46.45, 62.59 48.23 C52.96 50.01, 36.09 42.3, 22.92 35.25 C9.76 28.2, -9.87 10.6, -16.42 5.91" stroke="#1e1e1e" stroke-width="1" fill="none"></path></g><g transform="translate(616.5667615652258 275.69962659866025) rotate(0 32.00634107709527 23.289196029237587)"><path d="M7.76 15.21 C-3.72 11.23, -11.15 8.14, -17.02 6.15 M6.7 14.21 C-0.7 10.71, -7.28 9.04, -16.36 6.54" stroke="#1e1e1e" stroke-width="1" fill="none"></path></g><g transform="translate(616.5667615652258 275.69962659866025) rotate(0 32.00634107709527 23.289196029237587)"><path d="M-2.69 28.36 C-10.34 19.39, -13.85 11.37, -17.02 6.15 M-3.75 27.35 C-7.83 19.82, -11.17 14.07, -16.36 6.54" stroke="#1e1e1e" stroke-width="1" fill="none"></path></g></g><mask></mask><g stroke-linecap="round" transform="translate(547.8377503407571 89.38266215243273) rotate(0 34 34)"><path d="M28.46 0.56 C34.58 -0.94, 43.05 1.15, 48.84 4.16 C54.64 7.17, 60.25 12.94, 63.22 18.61 C66.19 24.28, 67.46 31.59, 66.64 38.17 C65.82 44.76, 62.85 53.24, 58.32 58.12 C53.79 63, 45.97 66.25, 39.45 67.47 C32.93 68.68, 25.23 68.24, 19.2 65.38 C13.16 62.53, 6.42 56.35, 3.24 50.33 C0.05 44.31, -1.08 35.78, 0.07 29.26 C1.23 22.74, 4.79 16.17, 10.15 11.22 C15.52 6.26, 28.21 1.39, 32.29 -0.47 C36.37 -2.33, 34.57 -0.46, 34.65 0.05 M44.91 1 C51.35 2.48, 58.28 7.54, 62.36 13.04 C66.44 18.54, 69.24 27.5, 69.39 34 C69.55 40.5, 67.4 46.63, 63.29 52.04 C59.17 57.44, 51.04 64.2, 44.72 66.43 C38.4 68.66, 31.65 67.49, 25.38 65.44 C19.1 63.38, 11.43 59.13, 7.06 54.12 C2.68 49.12, -0.79 42.22, -0.87 35.4 C-0.96 28.59, 2.67 19.02, 6.55 13.25 C10.42 7.48, 16.27 2.77, 22.38 0.76 C28.5 -1.26, 39.51 0.86, 43.26 1.18 C47.01 1.5, 44.81 1.96, 44.87 2.68" stroke="#1e1e1e" stroke-width="1" fill="none"></path></g><g transform="translate(575.6127863835029 110.84103159209009) rotate(0 6.183333396911621 12.5)"><text x="6.183333396911621" y="0" font-family="Virgil, Segoe UI Emoji" font-size="20px" fill="#1e1e1e" text-anchor="middle" style="white-space: pre;" direction="ltr" dominant-baseline="text-before-edge">5</text></g><g stroke-linecap="round"><g transform="translate(633.5866867666284 232.57117194963342) rotate(0 -6.092072581653724 -43.854560489868305)"><path d="M-0.48 -0.29 C0.36 -7.06, 8.4 -26.52, 5.15 -41.04 C1.9 -55.57, -15.53 -79.62, -19.97 -87.42 M1.47 -1.49 C2.65 -8.53, 10.93 -28.46, 7.29 -42.57 C3.65 -56.67, -15.55 -78.73, -20.39 -86.13" stroke="#1e1e1e" stroke-width="1" fill="none"></path></g><g transform="translate(633.5866867666284 232.57117194963342) rotate(0 -6.092072581653724 -43.854560489868305)"><path d="M1.05 -73.48 C-3.3 -75.13, -12.11 -82.22, -21.21 -87.36 M1.18 -70.87 C-5.37 -75.63, -12.49 -81.51, -20.73 -85.76" stroke="#1e1e1e" stroke-width="1" fill="none"></path></g><g transform="translate(633.5866867666284 232.57117194963342) rotate(0 -6.092072581653724 -43.854560489868305)"><path d="M-13.38 -62.77 C-13.22 -67.68, -17.56 -78.09, -21.21 -87.36 M-13.25 -60.16 C-15.16 -68.49, -17.64 -77.8, -20.73 -85.76" stroke="#1e1e1e" stroke-width="1" fill="none"></path></g></g><mask></mask><g transform="translate(651.8377503407571 179.38266215243272) rotate(0 3.383333444595337 12.5)"><text x="0" y="0" font-family="Virgil, Segoe UI Emoji" font-size="20px" fill="#1e1e1e" text-anchor="start" style="white-space: pre;" direction="ltr" dominant-baseline="text-before-edge">)</text></g><g stroke-linecap="round" transform="translate(165.75620737200705 62.01449808993273) rotate(0 36 36)"><path d="M32.72 -0.31 C39.12 -1.54, 47.1 0.65, 53.11 4.34 C59.11 8.03, 65.63 15.29, 68.74 21.83 C71.86 28.38, 73.39 36.68, 71.8 43.61 C70.21 50.55, 64.4 58.72, 59.21 63.44 C54.02 68.17, 47.42 71.4, 40.66 71.96 C33.91 72.53, 24.91 70.27, 18.69 66.82 C12.48 63.37, 6.35 57.6, 3.37 51.27 C0.39 44.94, -0.74 35.68, 0.82 28.82 C2.39 21.97, 7.18 14.79, 12.77 10.14 C18.35 5.49, 30.09 2.42, 34.32 0.94 C38.55 -0.55, 38.21 0.65, 38.15 1.23 M24.19 3.28 C30.32 0.25, 37.95 -1.87, 44.4 -0.31 C50.85 1.25, 58.29 6.77, 62.87 12.65 C67.45 18.53, 71.36 27.9, 71.89 34.95 C72.42 41.99, 69.96 49.41, 66.04 54.93 C62.12 60.44, 55.13 65.44, 48.38 68.04 C41.64 70.64, 32.42 72.21, 25.59 70.54 C18.76 68.87, 11.77 63.58, 7.39 58.02 C3.02 52.47, -0.27 43.93, -0.67 37.21 C-1.07 30.49, 0.92 23.49, 4.99 17.69 C9.06 11.9, 20.8 4.69, 23.75 2.44 C26.7 0.19, 22.79 3.82, 22.67 4.19" stroke="#1e1e1e" stroke-width="1" fill="none"></path></g><g transform="translate(195.40036315392393 85.55865396721701) rotate(0 6.400000095367432 12.5)"><text x="6.400000095367432" y="0" font-family="Virgil, Segoe UI Emoji" font-size="20px" fill="#1e1e1e" text-anchor="middle" style="white-space: pre;" direction="ltr" dominant-baseline="text-before-edge">6</text></g><g stroke-linecap="round"><g transform="translate(540.7562073720071 364.7942832461827) rotate(0 26.561749326437734 -42.01391043229961)"><path d="M-0.74 -1.16 C6.1 -4.73, 33.02 -8.66, 42.12 -22.31 C51.22 -35.96, 51.97 -72.86, 53.87 -83.04 M1.07 0.85 C7.67 -2.99, 32.49 -9.78, 41.23 -24.07 C49.98 -38.36, 51.42 -74.62, 53.56 -84.88" stroke="#1e1e1e" stroke-width="1" fill="none"></path></g><g transform="translate(540.7562073720071 364.7942832461827) rotate(0 26.561749326437734 -42.01391043229961)"><path d="M58.16 -55.4 C58.91 -65.57, 56.82 -77.53, 54.59 -85.64 M60.13 -54.95 C57.65 -63.33, 55.77 -71.89, 52.98 -84.12" stroke="#1e1e1e" stroke-width="1" fill="none"></path></g><g transform="translate(540.7562073720071 364.7942832461827) rotate(0 26.561749326437734 -42.01391043229961)"><path d="M37.81 -58.05 C46.45 -67.07, 52.27 -77.99, 54.59 -85.64 M39.78 -57.6 C42.86 -65.46, 46.54 -73.29, 52.98 -84.12" stroke="#1e1e1e" stroke-width="1" fill="none"></path></g></g><mask></mask><g transform="translate(449.3852639695744 10) rotate(0 28.133333206176758 12.5)"><text x="0" y="0" font-family="Virgil, Segoe UI Emoji" font-size="20px" fill="#1e1e1e" text-anchor="start" style="white-space: pre;" direction="ltr" dominant-baseline="text-before-edge">?, list</text></g><g stroke-linecap="round"><g transform="translate(576.5242737782571 80.13900980868273) rotate(0 -138.0542400168674 21.6921228928554)"><path d="M0.59 -0.77 C-6.85 -4.92, -29.35 -18.86, -45.11 -25.03 C-60.87 -31.21, -76.3 -37.49, -93.94 -37.82 C-111.59 -38.15, -132.45 -33.49, -150.98 -27.01 C-169.52 -20.54, -189.99 -8.59, -205.17 1.04 C-220.35 10.66, -231.55 20.47, -242.07 30.72 C-252.59 40.97, -262.67 54.11, -268.29 62.53 C-273.9 70.95, -274.58 78.17, -275.79 81.22 M-0.56 1.44 C-8.13 -3.02, -30.52 -20.34, -46.11 -26.65 C-61.71 -32.96, -76.63 -36.53, -94.15 -36.41 C-111.68 -36.28, -133.01 -31.7, -151.25 -25.92 C-169.49 -20.13, -188.16 -11.02, -203.59 -1.69 C-219.02 7.64, -233.22 19.02, -243.83 30.06 C-254.44 41.11, -261.79 56.11, -267.27 64.6 C-272.75 73.09, -275.09 78.54, -276.7 80.99" stroke="#1e1e1e" stroke-width="1" fill="none"></path></g><g transform="translate(576.5242737782571 80.13900980868273) rotate(0 -138.0542400168674 21.6921228928554)"><path d="M-275.72 71.38 C-274.75 74.83, -275.8 75.68, -276.71 80.05 M-274.81 71.28 C-275.56 75.25, -276.07 78.76, -277.17 81.28" stroke="#1e1e1e" stroke-width="1" fill="none"></path></g><g transform="translate(576.5242737782571 80.13900980868273) rotate(0 -138.0542400168674 21.6921228928554)"><path d="M-269.97 74.64 C-270.51 77.26, -273.07 77.26, -276.71 80.05 M-269.06 74.54 C-272.06 77.28, -274.79 79.54, -277.17 81.28" stroke="#1e1e1e" stroke-width="1" fill="none"></path></g></g><mask></mask><g stroke-linecap="round"><g transform="translate(262.0214242716158 194.32728610506678) rotate(0 -26.561903579164664 -26.096497868141483)"><path d="M0.79 -1.06 C-3.73 -2.02, -20.25 -1.95, -27.67 -5.86 C-35.09 -9.76, -39.38 -16.6, -43.73 -24.49 C-48.09 -32.38, -52.12 -48.59, -53.81 -53.19 M-0.25 1 C-4.89 0.25, -21.27 -0.32, -28.6 -4.34 C-35.94 -8.37, -40.03 -15.13, -44.25 -23.13 C-48.47 -31.13, -52.61 -47.64, -53.92 -52.34" stroke="#1e1e1e" stroke-width="1" fill="none"></path></g><g transform="translate(262.0214242716158 194.32728610506678) rotate(0 -26.561903579164664 -26.096497868141483)"><path d="M-46.71 -40.26 C-47.64 -42.73, -49.66 -47.24, -54.52 -53.28 M-45.63 -40.54 C-48.06 -43.94, -51 -48.85, -53.65 -52.43" stroke="#1e1e1e" stroke-width="1" fill="none"></path></g><g transform="translate(262.0214242716158 194.32728610506678) rotate(0 -26.561903579164664 -26.096497868141483)"><path d="M-56.45 -37.61 C-54.88 -40.83, -54.41 -46.01, -54.52 -53.28 M-55.37 -37.89 C-54.38 -42.23, -53.88 -48.07, -53.65 -52.43" stroke="#1e1e1e" stroke-width="1" fill="none"></path></g></g><mask></mask><g transform="translate(234.99976611083872 151.9206886879959) rotate(0 2.7333333492279053 12.5)"><text x="0" y="0" font-family="Virgil, Segoe UI Emoji" font-size="20px" fill="#1e1e1e" text-anchor="start" style="white-space: pre;" direction="ltr" dominant-baseline="text-before-edge">.</text></g><g stroke-linecap="round" transform="translate(125.4509493568716 257.19901953628005) rotate(359.41003897518067 31 31)"><path d="M28.43 0.45 C34.46 -0.54, 42.65 1.5, 48.12 5.23 C53.6 8.97, 59.61 16.31, 61.28 22.84 C62.94 29.36, 60.89 38.5, 58.12 44.38 C55.36 50.27, 50.42 55.23, 44.67 58.13 C38.91 61.03, 29.99 63.23, 23.58 61.79 C17.18 60.34, 10.27 55.13, 6.25 49.46 C2.22 43.78, -1 34.52, -0.58 27.75 C-0.16 20.98, 3.49 13.54, 8.77 8.82 C14.05 4.09, 27.12 0.88, 31.12 -0.59 C35.11 -2.06, 32.76 -0.47, 32.76 0 M31.27 0.39 C37.24 0.04, 45.04 2.57, 49.94 6.65 C54.85 10.72, 59.17 18.13, 60.7 24.82 C62.23 31.5, 62.12 40.98, 59.13 46.76 C56.14 52.55, 48.99 57.17, 42.75 59.52 C36.52 61.87, 28.38 63.07, 21.72 60.85 C15.07 58.63, 6.56 52.06, 2.84 46.2 C-0.88 40.33, -2.15 32.03, -0.58 25.68 C0.98 19.32, 6.93 12.14, 12.25 8.06 C17.57 3.97, 28.41 2.47, 31.34 1.17 C34.26 -0.13, 29.88 0.14, 29.8 0.25" stroke="#1e1e1e" stroke-width="1" fill="none"></path></g><g transform="translate(151.14730593391187 275.77870931949707) rotate(359.41003897518067 5.383333206176758 12.5)"><text x="5.383333206176758" y="0" font-family="Virgil, Segoe UI Emoji" font-size="20px" fill="#1e1e1e" text-anchor="middle" style="white-space: pre;" direction="ltr" dominant-baseline="text-before-edge">7</text></g><g transform="translate(11.11961614557103 313.08224795136215) rotate(10.594009943782583 47.56666564941405 10.5)"><text x="0" y="0" font-family="Virgil, Segoe UI Emoji" font-size="16.799999999999997px" fill="#1e1e1e" text-anchor="start" style="white-space: pre;" direction="ltr" dominant-baseline="text-before-edge">a-z, concat</text></g><g transform="translate(27.73493647542415 160.5684948038337) rotate(1.9224673809929882 56.61666488647461 12.5)"><text x="0" y="0" font-family="Virgil, Segoe UI Emoji" font-size="20px" fill="#1e1e1e" text-anchor="start" style="white-space: pre;" direction="ltr" dominant-baseline="text-before-edge">a-z, concat</text></g><g stroke-linecap="round"><g transform="translate(63.958970570191354 243.10209965235532) rotate(155.04753597989247 23.118080811399224 35.89947473973055)"><path d="M-0.45 0.4 C5.48 1.47, 26.04 0.02, 35.95 5.64 C45.86 11.27, 56.76 23.66, 59.01 34.14 C61.26 44.62, 57.33 63.35, 49.45 68.52 C41.58 73.7, 21.94 74.22, 11.77 65.2 C1.59 56.17, -7.44 22.76, -11.58 14.37 M1.52 -0.44 C7.23 0.81, 25.42 1.14, 34.91 6.57 C44.39 12, 56.05 22.19, 58.42 32.15 C60.78 42.12, 57.02 60.71, 49.09 66.35 C41.16 71.99, 21.24 74.29, 10.83 65.99 C0.41 57.69, -9.47 24.72, -13.4 16.55" stroke="#1e1e1e" stroke-width="1" fill="none"></path></g><g transform="translate(63.958970570191354 243.10209965235532) rotate(155.04753597989247 23.118080811399224 35.89947473973055)"><path d="M5.27 36.64 C-3.2 30.62, -6.12 21.35, -12.18 18.24 M4.06 36.62 C-2.35 30.05, -9.24 22.15, -14.06 17.17" stroke="#1e1e1e" stroke-width="1" fill="none"></path></g><g transform="translate(63.958970570191354 243.10209965235532) rotate(155.04753597989247 23.118080811399224 35.89947473973055)"><path d="M-12.05 43.45 C-14.7 35.22, -11.85 23.68, -12.18 18.24 M-13.25 43.42 C-13.4 34.5, -13.99 24.12, -14.06 17.17" stroke="#1e1e1e" stroke-width="1" fill="none"></path></g></g><mask></mask><g stroke-linecap="round"><g transform="translate(128.4958251439415 240.85728868771025) rotate(155.04753597989247 33.60276502221939 -50.16859905179015)"><path d="M-0.17 -1.16 C6.26 -4.4, 27.03 -2.66, 38.17 -19 C49.3 -35.35, 61.54 -85.86, 66.64 -99.22 M-1.72 0.84 C4.62 -2.77, 25.62 -3.76, 37.39 -20.77 C49.17 -37.77, 63.56 -87.75, 68.93 -101.18" stroke="#1e1e1e" stroke-width="1" fill="none"></path></g><g transform="translate(128.4958251439415 240.85728868771025) rotate(155.04753597989247 33.60276502221939 -50.16859905179015)"><path d="M67.46 -70.63 C70.32 -80.99, 70.28 -85.25, 70.21 -99.82 M69.14 -70.51 C68.86 -77.89, 68.68 -84.38, 68.06 -101.18" stroke="#1e1e1e" stroke-width="1" fill="none"></path></g><g transform="translate(128.4958251439415 240.85728868771025) rotate(155.04753597989247 33.60276502221939 -50.16859905179015)"><path d="M48.07 -77.34 C56.04 -85.91, 61.09 -88.41, 70.21 -99.82 M49.75 -77.23 C53.9 -83, 58.19 -87.94, 68.06 -101.18" stroke="#1e1e1e" stroke-width="1" fill="none"></path></g></g><mask></mask><g stroke-linecap="round" transform="translate(177.98734301517567 395.6802314856502) rotate(0 35.298437387375685 35.298437387375685)"><path d="M18.92 3.01 C24.54 -0.49, 33.63 -1, 40.41 0.25 C47.18 1.51, 54.55 5.47, 59.55 10.55 C64.55 15.63, 69.33 23.82, 70.43 30.73 C71.54 37.64, 69.25 46.11, 66.2 52.03 C63.14 57.94, 58.35 63.21, 52.13 66.22 C45.91 69.23, 35.92 70.97, 28.87 70.1 C21.81 69.24, 14.68 65.93, 9.81 61.03 C4.94 56.13, 0.74 47.71, -0.36 40.71 C-1.46 33.72, -0.9 25.38, 3.22 19.06 C7.34 12.73, 20.04 5.64, 24.37 2.76 C28.71 -0.12, 29.13 1.25, 29.23 1.79 M40.25 -0.33 C47.01 -0.47, 55.33 3.36, 60.05 8.22 C64.77 13.08, 67.19 21.79, 68.57 28.81 C69.94 35.83, 71 44.35, 68.31 50.34 C65.63 56.33, 58.77 61.52, 52.46 64.75 C46.14 67.98, 37.04 70.26, 30.4 69.72 C23.75 69.19, 17.59 66.3, 12.59 61.56 C7.58 56.82, 1.96 47.9, 0.37 41.29 C-1.22 34.69, 0.22 28.11, 3.05 21.92 C5.88 15.72, 11.4 7.83, 17.33 4.12 C23.27 0.42, 34.97 0.01, 38.65 -0.31 C42.33 -0.63, 39.24 1.55, 39.4 2.19" stroke="#1e1e1e" stroke-width="1" fill="none"></path></g><g transform="translate(205.67601586528184 418.51890443112376) rotate(0 7.650000095367432 12.5)"><text x="7.650000095367432" y="0" font-family="Virgil, Segoe UI Emoji" font-size="20px" fill="#1e1e1e" text-anchor="middle" style="white-space: pre;" direction="ltr" dominant-baseline="text-before-edge">8</text></g><g stroke-linecap="round" transform="translate(168.46866327026527 386.16155174073987) rotate(0 44.023893820210134 44.02389382021016)"><path d="M40.5 -0.27 C47.99 -1.71, 56.84 0.54, 63.7 4.21 C70.56 7.89, 77.44 14.77, 81.63 21.77 C85.82 28.77, 89.13 38.29, 88.84 46.22 C88.55 54.15, 84.75 62.94, 79.9 69.33 C75.04 75.73, 66.95 81.67, 59.68 84.59 C52.42 87.51, 43.79 88.42, 36.3 86.86 C28.82 85.3, 20.45 80.61, 14.77 75.25 C9.1 69.9, 4.47 62.23, 2.26 54.72 C0.06 47.21, -0.98 37.69, 1.53 30.2 C4.04 22.71, 9.57 14.91, 17.35 9.8 C25.12 4.68, 41.92 0.72, 48.19 -0.51 C54.46 -1.74, 55.05 1.44, 54.96 2.42 M40.04 1.6 C47.77 0.42, 58.03 1.34, 65.32 5.11 C72.6 8.88, 80.15 17.19, 83.76 24.22 C87.38 31.25, 87.74 39.43, 87.02 47.28 C86.3 55.13, 84 64.87, 79.44 71.31 C74.88 77.75, 67.28 83.28, 59.63 85.94 C51.99 88.61, 41.08 88.95, 33.56 87.3 C26.03 85.65, 19.83 81.59, 14.48 76.06 C9.14 70.54, 3.36 61.98, 1.49 54.15 C-0.39 46.33, 0.52 36.74, 3.22 29.12 C5.91 21.5, 11.48 13.37, 17.64 8.45 C23.8 3.53, 36.46 0.96, 40.19 -0.39 C43.92 -1.74, 39.93 -0.29, 40.02 0.33" stroke="#1e1e1e" stroke-width="1" fill="none"></path></g><g stroke-linecap="round"><g transform="translate(155.77709027705163 323.4969100867471) rotate(0 7.898864563789374 35.64931669643778)"><path d="M1.14 0.59 C0.58 6.06, -7.87 21.39, -4.42 32.96 C-0.97 44.53, 17.5 63.93, 21.83 70.01 M0.27 -0.14 C-0.32 4.94, -8.69 19.13, -5.18 31.06 C-1.68 42.99, 16.78 64.9, 21.29 71.44" stroke="#1e1e1e" stroke-width="1" fill="none"></path></g><g transform="translate(155.77709027705163 323.4969100867471) rotate(0 7.898864563789374 35.64931669643778)"><path d="M3.18 59.6 C6.95 62.16, 10.6 64.33, 20.66 70.83 M2.01 58.24 C6.96 62.96, 13.16 64.96, 21.69 71.89" stroke="#1e1e1e" stroke-width="1" fill="none"></path></g><g transform="translate(155.77709027705163 323.4969100867471) rotate(0 7.898864563789374 35.64931669643778)"><path d="M15.62 50.23 C16.79 54.88, 17.81 59.02, 20.66 70.83 M14.45 48.86 C16.06 56.02, 18.96 60.51, 21.69 71.89" stroke="#1e1e1e" stroke-width="1" fill="none"></path></g></g><mask></mask><g transform="translate(170.8483332064929 338.5681530161885) rotate(0 14.666666984558105 12.5)"><text x="0" y="0" font-family="Virgil, Segoe UI Emoji" font-size="20px" fill="#1e1e1e" text-anchor="start" style="white-space: pre;" direction="ltr" dominant-baseline="text-before-edge">\ n</text></g><g transform="translate(670.5360277304746 22.865274809996876) rotate(0 122.90000152587885 62.5)"><text x="0" y="0" font-family="Virgil, Segoe UI Emoji" font-size="20px" fill="#1e1e1e" text-anchor="start" style="white-space: pre;" direction="ltr" dominant-baseline="text-before-edge">concat:</text><text x="0" y="25" font-family="Virgil, Segoe UI Emoji" font-size="20px" fill="#1e1e1e" text-anchor="start" style="white-space: pre;" direction="ltr" dominant-baseline="text-before-edge">    concatena il simbolo</text><text x="0" y="50" font-family="Virgil, Segoe UI Emoji" font-size="20px" fill="#1e1e1e" text-anchor="start" style="white-space: pre;" direction="ltr" dominant-baseline="text-before-edge">    letto alla stringa id;</text><text x="0" y="75" font-family="Virgil, Segoe UI Emoji" font-size="20px" fill="#1e1e1e" text-anchor="start" style="white-space: pre;" direction="ltr" dominant-baseline="text-before-edge">    imposto id = ""</text><text x="0" y="100" font-family="Virgil, Segoe UI Emoji" font-size="20px" fill="#1e1e1e" text-anchor="start" style="white-space: pre;" direction="ltr" dominant-baseline="text-before-edge"></text></g><g transform="translate(669.181127100816 148.95231316012348) rotate(0 188.25000000000006 37.5)"><text x="0" y="0" font-family="Virgil, Segoe UI Emoji" font-size="20px" fill="#1e1e1e" text-anchor="start" style="white-space: pre;" direction="ltr" dominant-baseline="text-before-edge">list:</text><text x="0" y="25" font-family="Virgil, Segoe UI Emoji" font-size="20px" fill="#1e1e1e" text-anchor="start" style="white-space: pre;" direction="ltr" dominant-baseline="text-before-edge">    inserisce id, opt nella lista</text><text x="0" y="50" font-family="Virgil, Segoe UI Emoji" font-size="20px" fill="#1e1e1e" text-anchor="start" style="white-space: pre;" direction="ltr" dominant-baseline="text-before-edge">    opt = 1 sse passo per lo stato 2</text></g></svg>